<?xml version="1.0" encoding="utf-8"?>
<!-- Generator: Adobe Illustrator 24.1.1, SVG Export Plug-In . SVG Version: 6.00 Build 0)  -->
<svg version="1.1" id="Ebene_1" xmlns="http://www.w3.org/2000/svg" xmlns:xlink="http://www.w3.org/1999/xlink" x="0px" y="0px"
	 viewBox="0 0 14 12" style="enable-background:new 0 0 14 12;" xml:space="preserve">
<style type="text/css">
	.st0{fill:#211D27;}
	.st1{fill:#DDA841;}
	.st2{fill:#F4EF8E;}
	.st3{fill:#C87A39;}
</style>
<rect x="2" y="2" class="st0" width="1" height="1"/>
<rect x="6" class="st0" width="2" height="1"/>
<rect x="11" y="2" class="st0" width="1" height="1"/>
<rect x="5" y="1" class="st0" width="1" height="2"/>
<rect x="8" y="1" class="st0" width="1" height="2"/>
<polygon class="st0" points="5,3 5,5 4,5 4,4 3,4 3,3 "/>
<polygon class="st0" points="11,3 11,4 10,4 10,5 9,5 9,3 "/>
<polygon class="st0" points="14,1 14,12 0,12 0,1 2,1 2,2 1,2 1,11 13,11 13,2 12,2 12,1 "/>
<polygon class="st1" points="13,2 13,11 1,11 1,2 2,2 2,3 3,3 3,4 4,4 4,5 5,5 5,3 6,3 6,1 8,1 8,3 9,3 9,5 10,5 10,4 11,4 11,3 
	12,3 12,2 "/>
<rect x="1" y="9" class="st2" width="12" height="1"/>
<rect x="1" y="2" class="st2" width="1" height="1"/>
<rect x="2" y="3" class="st2" width="1" height="1"/>
<rect x="3" y="4" class="st2" width="1" height="1"/>
<rect x="4" y="5" class="st2" width="1" height="1"/>
<rect x="10" y="4" class="st2" width="1" height="1"/>
<rect x="11" y="3" class="st2" width="1" height="1"/>
<rect x="12" y="2" class="st2" width="1" height="1"/>
<rect x="9" y="5" class="st2" width="1" height="1"/>
<rect x="5" y="3" class="st2" width="1" height="2"/>
<rect x="8" y="3" class="st2" width="1" height="2"/>
<polygon class="st2" points="8,1 8,2 7,2 7,3 6,3 6,1 "/>
<rect x="1" y="8" class="st3" width="12" height="1"/>
<rect x="5" y="5" class="st3" width="1" height="1"/>
<rect x="8" y="5" class="st3" width="1" height="1"/>
</svg>
